<mxfile host="app.diagrams.net" modified="2020-08-17T09:22:23.370Z" agent="5.0 (Windows NT 10.0; Win64; x64) AppleWebKit/537.36 (KHTML, like Gecko) Chrome/84.0.4147.125 Safari/537.36" etag="eD76Fk08Ruk380ZwPD74" version="13.6.2" type="github">
  <diagram id="C5RBs43oDa-KdzZeNtuy" name="Page-1">
    <mxGraphModel dx="1607" dy="1144" grid="1" gridSize="10" guides="1" tooltips="1" connect="1" arrows="1" fold="1" page="1" pageScale="1" pageWidth="827" pageHeight="1169" math="0" shadow="0">
      <root>
        <mxCell id="WIyWlLk6GJQsqaUBKTNV-0" />
        <mxCell id="WIyWlLk6GJQsqaUBKTNV-1" parent="WIyWlLk6GJQsqaUBKTNV-0" />
        <mxCell id="WIyWlLk6GJQsqaUBKTNV-2" value="" style="rounded=0;html=1;jettySize=auto;orthogonalLoop=1;fontSize=11;endArrow=block;endFill=0;endSize=8;strokeWidth=1;shadow=0;labelBackgroundColor=none;edgeStyle=orthogonalEdgeStyle;exitX=0.5;exitY=1;exitDx=0;exitDy=0;exitPerimeter=0;" parent="WIyWlLk6GJQsqaUBKTNV-1" source="t_p_abEQc-r9YL8hw_5q-1" edge="1">
          <mxGeometry relative="1" as="geometry">
            <mxPoint x="219.5" y="140" as="sourcePoint" />
            <mxPoint x="219.5" y="190" as="targetPoint" />
          </mxGeometry>
        </mxCell>
        <mxCell id="t_p_abEQc-r9YL8hw_5q-1" value="系统启动" style="strokeWidth=2;html=1;shape=mxgraph.flowchart.start_2;whiteSpace=wrap;" vertex="1" parent="WIyWlLk6GJQsqaUBKTNV-1">
          <mxGeometry x="190" y="70" width="60" height="50" as="geometry" />
        </mxCell>
        <mxCell id="t_p_abEQc-r9YL8hw_5q-11" value="" style="edgeStyle=orthogonalEdgeStyle;rounded=0;orthogonalLoop=1;jettySize=auto;html=1;" edge="1" parent="WIyWlLk6GJQsqaUBKTNV-1" target="t_p_abEQc-r9YL8hw_5q-10">
          <mxGeometry relative="1" as="geometry">
            <mxPoint x="220" y="250" as="sourcePoint" />
          </mxGeometry>
        </mxCell>
        <mxCell id="t_p_abEQc-r9YL8hw_5q-3" value="百度地图开放平台" style="strokeWidth=2;html=1;shape=mxgraph.flowchart.database;whiteSpace=wrap;" vertex="1" parent="WIyWlLk6GJQsqaUBKTNV-1">
          <mxGeometry x="414" y="180" width="76" height="80" as="geometry" />
        </mxCell>
        <mxCell id="t_p_abEQc-r9YL8hw_5q-8" value="" style="endArrow=classic;startArrow=classic;html=1;" edge="1" parent="WIyWlLk6GJQsqaUBKTNV-1" target="t_p_abEQc-r9YL8hw_5q-3">
          <mxGeometry width="50" height="50" relative="1" as="geometry">
            <mxPoint x="270" y="220" as="sourcePoint" />
            <mxPoint x="300" y="260" as="targetPoint" />
          </mxGeometry>
        </mxCell>
        <mxCell id="t_p_abEQc-r9YL8hw_5q-9" value="位置请求" style="edgeLabel;html=1;align=center;verticalAlign=middle;resizable=0;points=[];" vertex="1" connectable="0" parent="t_p_abEQc-r9YL8hw_5q-8">
          <mxGeometry x="-0.1806" y="-1" relative="1" as="geometry">
            <mxPoint as="offset" />
          </mxGeometry>
        </mxCell>
        <mxCell id="t_p_abEQc-r9YL8hw_5q-21" value="是" style="edgeStyle=orthogonalEdgeStyle;rounded=0;orthogonalLoop=1;jettySize=auto;html=1;" edge="1" parent="WIyWlLk6GJQsqaUBKTNV-1" source="t_p_abEQc-r9YL8hw_5q-10" target="t_p_abEQc-r9YL8hw_5q-12">
          <mxGeometry relative="1" as="geometry" />
        </mxCell>
        <mxCell id="t_p_abEQc-r9YL8hw_5q-22" value="否，再次尝试请求" style="edgeStyle=orthogonalEdgeStyle;rounded=0;orthogonalLoop=1;jettySize=auto;html=1;entryX=0;entryY=0.5;entryDx=0;entryDy=0;" edge="1" parent="WIyWlLk6GJQsqaUBKTNV-1" source="t_p_abEQc-r9YL8hw_5q-10">
          <mxGeometry relative="1" as="geometry">
            <mxPoint x="170" y="210" as="targetPoint" />
            <Array as="points">
              <mxPoint x="70" y="350" />
              <mxPoint x="70" y="210" />
            </Array>
          </mxGeometry>
        </mxCell>
        <mxCell id="t_p_abEQc-r9YL8hw_5q-10" value="百度地图返回结果" style="strokeWidth=2;html=1;shape=mxgraph.flowchart.decision;whiteSpace=wrap;" vertex="1" parent="WIyWlLk6GJQsqaUBKTNV-1">
          <mxGeometry x="160" y="310" width="120" height="80" as="geometry" />
        </mxCell>
        <mxCell id="t_p_abEQc-r9YL8hw_5q-15" value="" style="edgeStyle=orthogonalEdgeStyle;rounded=0;orthogonalLoop=1;jettySize=auto;html=1;" edge="1" parent="WIyWlLk6GJQsqaUBKTNV-1" source="t_p_abEQc-r9YL8hw_5q-12" target="t_p_abEQc-r9YL8hw_5q-14">
          <mxGeometry relative="1" as="geometry" />
        </mxCell>
        <mxCell id="t_p_abEQc-r9YL8hw_5q-20" value="" style="edgeStyle=orthogonalEdgeStyle;rounded=0;orthogonalLoop=1;jettySize=auto;html=1;" edge="1" parent="WIyWlLk6GJQsqaUBKTNV-1" source="t_p_abEQc-r9YL8hw_5q-12" target="t_p_abEQc-r9YL8hw_5q-18">
          <mxGeometry relative="1" as="geometry" />
        </mxCell>
        <mxCell id="t_p_abEQc-r9YL8hw_5q-24" value="存储" style="edgeLabel;html=1;align=center;verticalAlign=middle;resizable=0;points=[];" vertex="1" connectable="0" parent="t_p_abEQc-r9YL8hw_5q-20">
          <mxGeometry x="-0.3826" y="-1" relative="1" as="geometry">
            <mxPoint as="offset" />
          </mxGeometry>
        </mxCell>
        <mxCell id="t_p_abEQc-r9YL8hw_5q-12" value="缓存当前位置信息" style="whiteSpace=wrap;html=1;strokeWidth=2;" vertex="1" parent="WIyWlLk6GJQsqaUBKTNV-1">
          <mxGeometry x="160" y="480" width="120" height="60" as="geometry" />
        </mxCell>
        <mxCell id="t_p_abEQc-r9YL8hw_5q-28" value="" style="edgeStyle=orthogonalEdgeStyle;rounded=0;orthogonalLoop=1;jettySize=auto;html=1;" edge="1" parent="WIyWlLk6GJQsqaUBKTNV-1" source="t_p_abEQc-r9YL8hw_5q-14" target="t_p_abEQc-r9YL8hw_5q-27">
          <mxGeometry relative="1" as="geometry" />
        </mxCell>
        <mxCell id="t_p_abEQc-r9YL8hw_5q-14" value="调用百度天气API发送请求" style="whiteSpace=wrap;html=1;strokeWidth=2;" vertex="1" parent="WIyWlLk6GJQsqaUBKTNV-1">
          <mxGeometry x="160" y="620" width="120" height="60" as="geometry" />
        </mxCell>
        <mxCell id="t_p_abEQc-r9YL8hw_5q-18" value="本地数据缓存" style="shape=parallelogram;html=1;strokeWidth=2;perimeter=parallelogramPerimeter;whiteSpace=wrap;rounded=1;arcSize=12;size=0.23;" vertex="1" parent="WIyWlLk6GJQsqaUBKTNV-1">
          <mxGeometry x="-10" y="620" width="100" height="60" as="geometry" />
        </mxCell>
        <mxCell id="t_p_abEQc-r9YL8hw_5q-23" value="百度天气服务" style="strokeWidth=2;html=1;shape=mxgraph.flowchart.database;whiteSpace=wrap;" vertex="1" parent="WIyWlLk6GJQsqaUBKTNV-1">
          <mxGeometry x="400" y="610" width="76" height="80" as="geometry" />
        </mxCell>
        <mxCell id="t_p_abEQc-r9YL8hw_5q-26" value="天气数据请求" style="endArrow=classic;startArrow=classic;html=1;exitX=1;exitY=0.5;exitDx=0;exitDy=0;" edge="1" parent="WIyWlLk6GJQsqaUBKTNV-1" source="t_p_abEQc-r9YL8hw_5q-14" target="t_p_abEQc-r9YL8hw_5q-23">
          <mxGeometry width="50" height="50" relative="1" as="geometry">
            <mxPoint x="280" y="700" as="sourcePoint" />
            <mxPoint x="330" y="650" as="targetPoint" />
            <Array as="points" />
          </mxGeometry>
        </mxCell>
        <mxCell id="t_p_abEQc-r9YL8hw_5q-30" value="是" style="edgeStyle=orthogonalEdgeStyle;rounded=0;orthogonalLoop=1;jettySize=auto;html=1;" edge="1" parent="WIyWlLk6GJQsqaUBKTNV-1" source="t_p_abEQc-r9YL8hw_5q-27" target="t_p_abEQc-r9YL8hw_5q-29">
          <mxGeometry relative="1" as="geometry" />
        </mxCell>
        <mxCell id="t_p_abEQc-r9YL8hw_5q-32" value="否，再次尝试请求" style="edgeStyle=orthogonalEdgeStyle;rounded=0;orthogonalLoop=1;jettySize=auto;html=1;exitX=0;exitY=0.5;exitDx=0;exitDy=0;exitPerimeter=0;entryX=0;entryY=0.5;entryDx=0;entryDy=0;" edge="1" parent="WIyWlLk6GJQsqaUBKTNV-1" source="t_p_abEQc-r9YL8hw_5q-27" target="t_p_abEQc-r9YL8hw_5q-14">
          <mxGeometry relative="1" as="geometry">
            <Array as="points">
              <mxPoint x="110" y="780" />
              <mxPoint x="110" y="650" />
            </Array>
          </mxGeometry>
        </mxCell>
        <mxCell id="t_p_abEQc-r9YL8hw_5q-27" value="百度天气返回结果" style="strokeWidth=2;html=1;shape=mxgraph.flowchart.decision;whiteSpace=wrap;" vertex="1" parent="WIyWlLk6GJQsqaUBKTNV-1">
          <mxGeometry x="160" y="740" width="120" height="80" as="geometry" />
        </mxCell>
        <mxCell id="t_p_abEQc-r9YL8hw_5q-31" style="edgeStyle=orthogonalEdgeStyle;rounded=0;orthogonalLoop=1;jettySize=auto;html=1;entryX=0.5;entryY=1;entryDx=0;entryDy=0;" edge="1" parent="WIyWlLk6GJQsqaUBKTNV-1" source="t_p_abEQc-r9YL8hw_5q-29" target="t_p_abEQc-r9YL8hw_5q-18">
          <mxGeometry relative="1" as="geometry" />
        </mxCell>
        <mxCell id="t_p_abEQc-r9YL8hw_5q-36" value="" style="edgeStyle=orthogonalEdgeStyle;rounded=0;orthogonalLoop=1;jettySize=auto;html=1;" edge="1" parent="WIyWlLk6GJQsqaUBKTNV-1" source="t_p_abEQc-r9YL8hw_5q-29" target="t_p_abEQc-r9YL8hw_5q-35">
          <mxGeometry relative="1" as="geometry" />
        </mxCell>
        <mxCell id="t_p_abEQc-r9YL8hw_5q-29" value="缓存天气数据" style="whiteSpace=wrap;html=1;strokeWidth=2;" vertex="1" parent="WIyWlLk6GJQsqaUBKTNV-1">
          <mxGeometry x="160" y="910" width="120" height="60" as="geometry" />
        </mxCell>
        <mxCell id="t_p_abEQc-r9YL8hw_5q-37" style="edgeStyle=orthogonalEdgeStyle;rounded=0;orthogonalLoop=1;jettySize=auto;html=1;entryX=0;entryY=0.5;entryDx=0;entryDy=0;" edge="1" parent="WIyWlLk6GJQsqaUBKTNV-1" source="t_p_abEQc-r9YL8hw_5q-33" target="t_p_abEQc-r9YL8hw_5q-35">
          <mxGeometry relative="1" as="geometry" />
        </mxCell>
        <mxCell id="t_p_abEQc-r9YL8hw_5q-33" value="本地疫情数据库" style="strokeWidth=2;html=1;shape=mxgraph.flowchart.database;whiteSpace=wrap;" vertex="1" parent="WIyWlLk6GJQsqaUBKTNV-1">
          <mxGeometry x="30" y="1000" width="80" height="80" as="geometry" />
        </mxCell>
        <mxCell id="t_p_abEQc-r9YL8hw_5q-39" style="edgeStyle=orthogonalEdgeStyle;rounded=0;orthogonalLoop=1;jettySize=auto;html=1;exitX=1;exitY=0.5;exitDx=0;exitDy=0;exitPerimeter=0;entryX=0;entryY=0.5;entryDx=0;entryDy=0;" edge="1" parent="WIyWlLk6GJQsqaUBKTNV-1" source="t_p_abEQc-r9YL8hw_5q-34" target="t_p_abEQc-r9YL8hw_5q-35">
          <mxGeometry relative="1" as="geometry" />
        </mxCell>
        <mxCell id="t_p_abEQc-r9YL8hw_5q-34" value="本地花粉过敏数据库" style="strokeWidth=2;html=1;shape=mxgraph.flowchart.database;whiteSpace=wrap;" vertex="1" parent="WIyWlLk6GJQsqaUBKTNV-1">
          <mxGeometry x="30" y="1090" width="80" height="90" as="geometry" />
        </mxCell>
        <mxCell id="t_p_abEQc-r9YL8hw_5q-41" value="" style="edgeStyle=orthogonalEdgeStyle;rounded=0;orthogonalLoop=1;jettySize=auto;html=1;" edge="1" parent="WIyWlLk6GJQsqaUBKTNV-1" source="t_p_abEQc-r9YL8hw_5q-35" target="t_p_abEQc-r9YL8hw_5q-40">
          <mxGeometry relative="1" as="geometry" />
        </mxCell>
        <mxCell id="t_p_abEQc-r9YL8hw_5q-35" value="根据当前位置检索疫情数据库及花粉过敏半径数据库" style="whiteSpace=wrap;html=1;strokeWidth=2;" vertex="1" parent="WIyWlLk6GJQsqaUBKTNV-1">
          <mxGeometry x="160" y="1050" width="120" height="60" as="geometry" />
        </mxCell>
        <mxCell id="t_p_abEQc-r9YL8hw_5q-43" value="" style="edgeStyle=orthogonalEdgeStyle;rounded=0;orthogonalLoop=1;jettySize=auto;html=1;" edge="1" parent="WIyWlLk6GJQsqaUBKTNV-1" source="t_p_abEQc-r9YL8hw_5q-40" target="t_p_abEQc-r9YL8hw_5q-42">
          <mxGeometry relative="1" as="geometry" />
        </mxCell>
        <mxCell id="t_p_abEQc-r9YL8hw_5q-40" value="计算输出疫情数值(P)，花粉过敏数据(Q)" style="whiteSpace=wrap;html=1;strokeWidth=2;" vertex="1" parent="WIyWlLk6GJQsqaUBKTNV-1">
          <mxGeometry x="160" y="1190" width="120" height="60" as="geometry" />
        </mxCell>
        <mxCell id="t_p_abEQc-r9YL8hw_5q-45" value="否" style="edgeStyle=orthogonalEdgeStyle;rounded=0;orthogonalLoop=1;jettySize=auto;html=1;entryX=0.5;entryY=0;entryDx=0;entryDy=0;entryPerimeter=0;" edge="1" parent="WIyWlLk6GJQsqaUBKTNV-1" source="t_p_abEQc-r9YL8hw_5q-42" target="t_p_abEQc-r9YL8hw_5q-46">
          <mxGeometry relative="1" as="geometry">
            <mxPoint x="220" y="1475" as="targetPoint" />
          </mxGeometry>
        </mxCell>
        <mxCell id="t_p_abEQc-r9YL8hw_5q-58" value="是" style="edgeStyle=orthogonalEdgeStyle;rounded=0;orthogonalLoop=1;jettySize=auto;html=1;exitX=0;exitY=0.5;exitDx=0;exitDy=0;entryX=1;entryY=0.5;entryDx=0;entryDy=0;" edge="1" parent="WIyWlLk6GJQsqaUBKTNV-1" source="t_p_abEQc-r9YL8hw_5q-42" target="t_p_abEQc-r9YL8hw_5q-48">
          <mxGeometry relative="1" as="geometry">
            <Array as="points">
              <mxPoint x="370" y="1355" />
              <mxPoint x="370" y="1760" />
            </Array>
          </mxGeometry>
        </mxCell>
        <mxCell id="t_p_abEQc-r9YL8hw_5q-42" value="P值&amp;gt;=重大疫情阈值" style="rhombus;whiteSpace=wrap;html=1;strokeWidth=2;" vertex="1" parent="WIyWlLk6GJQsqaUBKTNV-1">
          <mxGeometry x="150" y="1320" width="140" height="70" as="geometry" />
        </mxCell>
        <mxCell id="t_p_abEQc-r9YL8hw_5q-53" value="否" style="edgeStyle=orthogonalEdgeStyle;rounded=0;orthogonalLoop=1;jettySize=auto;html=1;" edge="1" parent="WIyWlLk6GJQsqaUBKTNV-1" source="t_p_abEQc-r9YL8hw_5q-46" target="t_p_abEQc-r9YL8hw_5q-52">
          <mxGeometry relative="1" as="geometry" />
        </mxCell>
        <mxCell id="t_p_abEQc-r9YL8hw_5q-57" value="是" style="edgeStyle=orthogonalEdgeStyle;rounded=0;orthogonalLoop=1;jettySize=auto;html=1;entryX=0;entryY=0.5;entryDx=0;entryDy=0;" edge="1" parent="WIyWlLk6GJQsqaUBKTNV-1" source="t_p_abEQc-r9YL8hw_5q-46" target="t_p_abEQc-r9YL8hw_5q-48">
          <mxGeometry relative="1" as="geometry">
            <Array as="points">
              <mxPoint x="70" y="1505" />
              <mxPoint x="70" y="1760" />
            </Array>
          </mxGeometry>
        </mxCell>
        <mxCell id="t_p_abEQc-r9YL8hw_5q-46" value="Q值 &amp;gt;=&amp;nbsp;花粉季阈值" style="strokeWidth=2;html=1;shape=mxgraph.flowchart.decision;whiteSpace=wrap;" vertex="1" parent="WIyWlLk6GJQsqaUBKTNV-1">
          <mxGeometry x="150" y="1480" width="140" height="50" as="geometry" />
        </mxCell>
        <mxCell id="t_p_abEQc-r9YL8hw_5q-60" value="" style="edgeStyle=orthogonalEdgeStyle;rounded=0;orthogonalLoop=1;jettySize=auto;html=1;" edge="1" parent="WIyWlLk6GJQsqaUBKTNV-1" source="t_p_abEQc-r9YL8hw_5q-48" target="t_p_abEQc-r9YL8hw_5q-59">
          <mxGeometry relative="1" as="geometry" />
        </mxCell>
        <mxCell id="t_p_abEQc-r9YL8hw_5q-48" value="发送短信提示用户" style="whiteSpace=wrap;html=1;strokeWidth=2;" vertex="1" parent="WIyWlLk6GJQsqaUBKTNV-1">
          <mxGeometry x="160" y="1730" width="120" height="60" as="geometry" />
        </mxCell>
        <mxCell id="t_p_abEQc-r9YL8hw_5q-56" value="是" style="edgeStyle=orthogonalEdgeStyle;rounded=0;orthogonalLoop=1;jettySize=auto;html=1;entryX=0.5;entryY=0;entryDx=0;entryDy=0;" edge="1" parent="WIyWlLk6GJQsqaUBKTNV-1" source="t_p_abEQc-r9YL8hw_5q-52" target="t_p_abEQc-r9YL8hw_5q-48">
          <mxGeometry relative="1" as="geometry">
            <mxPoint x="220" y="1735" as="targetPoint" />
          </mxGeometry>
        </mxCell>
        <mxCell id="t_p_abEQc-r9YL8hw_5q-52" value="PM 2.5 &amp;gt;= 150ug/m3" style="strokeWidth=2;html=1;shape=mxgraph.flowchart.decision;whiteSpace=wrap;" vertex="1" parent="WIyWlLk6GJQsqaUBKTNV-1">
          <mxGeometry x="150" y="1610" width="140" height="50" as="geometry" />
        </mxCell>
        <mxCell id="t_p_abEQc-r9YL8hw_5q-59" value="结束" style="strokeWidth=2;html=1;shape=mxgraph.flowchart.terminator;whiteSpace=wrap;" vertex="1" parent="WIyWlLk6GJQsqaUBKTNV-1">
          <mxGeometry x="170" y="1850" width="100" height="60" as="geometry" />
        </mxCell>
        <mxCell id="t_p_abEQc-r9YL8hw_5q-65" value="调用百度地图SDK发送位置请求" style="whiteSpace=wrap;html=1;strokeWidth=2;" vertex="1" parent="WIyWlLk6GJQsqaUBKTNV-1">
          <mxGeometry x="160" y="190" width="120" height="60" as="geometry" />
        </mxCell>
      </root>
    </mxGraphModel>
  </diagram>
</mxfile>
